#!OML:ASF I:\Actors\actors\Patient Classification 1\Patient 1\Session 1\Subject1.ASF
:FULLY-SPECIFIED
:DEGREES
514
root 0.709526 17.4817 9.59543 8.51682 5.40853 -9.24536
lowerback 1.63286 4.29215 7.65745
upperback -8.26457 6.4156 1.10109
thorax -9.00722 2.64278 -3.64257
lowerneck -13.8737 3.56095 5.08507
upperneck 28.7831 3.4413 1.54499
head 11.7958 2.35455 0.202833
rclavicle -1.87852e-014 1.23246e-014
rhumerus -51.8653 44.8922 -114.787
rradius 96.7262
rwrist -38.5712
rhand 23.219 -71.8363
rfingers 7.12502
rthumb 47.5212 -625.731
lclavicle -1.87852e-014 1.23246e-014
lhumerus -62.3534 -33.7785 108.129
lradius 94.0754
lwrist 80.3278
lhand -30.8863 22.7351
lfingers 7.12502
lthumb -4.17333 52.6739
rfemur -1.27942 24.7892 27.3332
rtibia 1.99482
rfoot -16.0955 -30.6879
rtoes 8.56583
lfemur 3.48102 -40.6011 -10.0419
ltibia -4.62116
lfoot -10.9435 43.8791
ltoes -3.10615
515
root 0.688453 17.4817 9.57921 8.49111 5.52457 -9.25494
lowerback 2.27157 4.25328 8.02581
upperback -8.60328 6.46515 0.891271
thorax -9.70647 2.58454 -4.14529
lowerneck -13.713 3.4612 5.27087
upperneck 29.0526 3.21245 1.70254
head 11.8684 2.29827 0.198744
rclavicle 1.97791e-014 3.89618e-014
rhumerus -52.3893 44.1595 -115.075
rradius 97.0007
rwrist -39.0974
rhand 22.8726 -72.1983
rfingers 7.12502
rthumb 47.2012 -625.225
lclavicle 1.97791e-014 3.89618e-014
lhumerus -63.3255 -35.6921 109.107
lradius 94.1949
lwrist 81.1949
lhand -31.5362 22.8607
lfingers 7.12502
lthumb -4.80086 52.7863
rfemur -1.34353 24.8101 27.4168
rtibia 2.05617
rfoot -16.1052 -30.7725
rtoes 8.82029
lfemur 3.30011 -40.4734 -9.81879
ltibia -4.58899
lfoot -10.738 43.6712
ltoes -3.43042
516
root 0.668054 17.483 9.56244 8.43759 5.58789 -9.26753
lowerback 2.40238 4.11621 8.0461
upperback -8.52271 6.29548 0.960173
thorax -9.72108 2.50314 -4.07807
lowerneck -13.8129 3.47517 5.27754
upperneck 29.0538 3.20507 1.75149
head 11.8888 2.30072 0.216664
rclavicle 3.88127e-014 1.47101e-014
rhumerus -52.406 44.1903 -114.849
rradius 97.2789
rwrist -39.6346
rhand 22.599 -72.4893
rfingers 7.12502
rthumb 46.9481 -624.822
lclavicle 3.88127e-014 1.47101e-014
lhumerus -63.4034 -37.2128 109.721
lradius 94.2582
lwrist 82.131
lhand -32.1135 22.9339
lfingers 7.12502
lthumb -5.3583 52.8461
rfemur -1.38081 24.6593 27.4943
rtibia 2.08952
rfoot -16.0481 -30.64
rtoes 9.01862
lfemur 3.19023 -40.2666 -9.6428
ltibia -4.57456
lfoot -10.6288 43.4367
ltoes -3.59214
517
root 0.650543 17.4841 9.54414 8.43046 5.72872 -9.26765
lowerback 1.96146 3.85057 7.75071
upperback -8.07847 5.86401 1.30748
thorax -9.07156 2.37247 -3.45721
lowerneck -14.0509 3.63525 5.1968
upperneck 28.7666 3.49383 1.55357
head 11.8302 2.38777 0.197776
rclavicle -1.03865e-014 -2.50469e-014
rhumerus -51.986 45.0587 -114.118
rradius 97.576
rwrist -40.1049
rhand 22.4178 -72.7533
rfingers 7.12502
rthumb 46.7804 -624.484
lclavicle -1.03865e-014 -2.50469e-014
lhumerus -62.5615 -38.2988 109.921
lradius 94.196
lwrist 83.251
lhand -32.429 22.704
lfingers 7.12502
lthumb -5.66291 52.6084
rfemur -1.47814 24.4735 27.527
rtibia 2.12124
rfoot -16.0367 -30.5461
rtoes 9.22756
lfemur 2.98347 -40.1757 -9.43817
ltibia -4.53201
lfoot -10.5708 43.2384
ltoes -3.69307
518
root 0.63325 17.4871 9.52545 8.41051 5.85008 -9.31547
lowerback 2.41926 3.76269 8.03289
upperback -8.25481 5.81848 1.18921
thorax -9.51337 2.29668 -3.77874
lowerneck -13.8712 3.57374 5.27055
upperneck 28.7993 3.3328 1.76848
head 11.8026 2.35185 0.238912
rclavicle -3.13334e-014 -9.54166e-015
rhumerus -52.4445 44.6051 -114.183
rradius 97.9925
rwrist -40.1002
rhand 22.3716 -73.0968
rfingers 7.12502
rthumb 46.7376 -624.122
lclavicle -3.13334e-014 -9.54166e-015
lhumerus -63.3536 -39.8335 110.832
lradius 94.3455
lwrist 84.7963
lhand -32.8946 22.4945
lfingers 7.12502
lthumb -6.11249 52.3863
rfemur -1.58988 24.3678 27.6179
rtibia 2.204
rfoot -16.0575 -30.5144
rtoes 9.47715
lfemur 2.78362 -40.0384 -9.17229
ltibia -4.51494
lfoot -10.4276 43.0311
ltoes -3.89424
